<mxfile host="65bd71144e">
    <diagram id="xos4aEE469CeniLesyN0" name="Страница 1">
        <mxGraphModel dx="1118" dy="610" grid="1" gridSize="10" guides="1" tooltips="1" connect="1" arrows="1" fold="1" page="1" pageScale="1" pageWidth="1169" pageHeight="827" math="0" shadow="0">
            <root>
                <mxCell id="0"/>
                <mxCell id="1" parent="0"/>
                <mxCell id="74" value="" style="group" vertex="1" connectable="0" parent="1">
                    <mxGeometry x="74" y="320" width="1046" height="241.64" as="geometry"/>
                </mxCell>
                <mxCell id="4" value="" style="rounded=1;whiteSpace=wrap;html=1;" vertex="1" parent="74">
                    <mxGeometry y="18.58769230769231" width="1046" height="223.05230769230772" as="geometry"/>
                </mxCell>
                <mxCell id="3" value="" style="rounded=1;whiteSpace=wrap;html=1;" vertex="1" parent="74">
                    <mxGeometry x="31.380000000000003" y="32.52846153846154" width="493.712" height="195.17076923076928" as="geometry"/>
                </mxCell>
                <mxCell id="20" value="" style="rounded=1;whiteSpace=wrap;html=1;" vertex="1" parent="74">
                    <mxGeometry x="537.644" y="32.52846153846154" width="493.712" height="195.17076923076928" as="geometry"/>
                </mxCell>
                <mxCell id="21" value="Компонент логики - Панель со списком всех объектов проекта, с отображением их зависимостей" style="shape=module;align=left;spacingLeft=20;align=center;verticalAlign=top;whiteSpace=wrap;fontSize=10;" vertex="1" parent="74">
                    <mxGeometry x="543.92" y="120.82000000000001" width="115.05999999999999" height="74.35076923076925" as="geometry"/>
                </mxCell>
                <mxCell id="22" value="" style="shape=module;align=left;spacingLeft=20;align=center;verticalAlign=top;" vertex="1" parent="74">
                    <mxGeometry x="574.777" y="40.892923076923076" width="115.583" height="61.33938461538462" as="geometry"/>
                </mxCell>
                <mxCell id="23" value="Module" style="shape=module;align=left;spacingLeft=20;align=center;verticalAlign=top;" vertex="1" parent="74">
                    <mxGeometry x="726.97" y="40.892923076923076" width="115.05999999999999" height="61.33938461538462" as="geometry"/>
                </mxCell>
                <mxCell id="24" value="Компонент логики - Шкала времени" style="shape=module;align=left;spacingLeft=20;align=center;verticalAlign=top;whiteSpace=wrap;" vertex="1" parent="74">
                    <mxGeometry x="673.624" y="120.82000000000001" width="110.87599999999999" height="74.35076923076925" as="geometry"/>
                </mxCell>
                <mxCell id="25" value="Компонент логики - Панель инструментов" style="shape=module;align=left;spacingLeft=20;align=center;verticalAlign=top;whiteSpace=wrap;" vertex="1" parent="74">
                    <mxGeometry x="794.96" y="120.82000000000001" width="110.353" height="74.35076923076925" as="geometry"/>
                </mxCell>
                <mxCell id="27" value="Компонент логики - Панель инструментов" style="shape=module;align=left;spacingLeft=20;align=center;verticalAlign=top;whiteSpace=wrap;fontSize=10;" vertex="1" parent="74">
                    <mxGeometry x="920.4799999999999" y="120.82000000000001" width="104.6" height="74.35076923076925" as="geometry"/>
                </mxCell>
                <mxCell id="28" value="компонент логики меню Сохранить" style="shape=module;align=left;spacingLeft=20;align=center;verticalAlign=top;whiteSpace=wrap;" vertex="1" parent="74">
                    <mxGeometry x="31.380000000000003" y="120.82000000000001" width="115.05999999999999" height="65.05692307692308" as="geometry"/>
                </mxCell>
                <mxCell id="29" value="" style="shape=module;align=left;spacingLeft=20;align=center;verticalAlign=top;" vertex="1" parent="74">
                    <mxGeometry x="81.588" y="46.469230769230776" width="110.87599999999999" height="55.76307692307693" as="geometry"/>
                </mxCell>
                <mxCell id="30" value="компонент логики меню Сохранить как" style="shape=module;align=left;spacingLeft=20;align=center;verticalAlign=top;whiteSpace=wrap;" vertex="1" parent="74">
                    <mxGeometry x="161.07399824761904" y="120.82000000000001" width="100.416" height="65.05692307692308" as="geometry"/>
                </mxCell>
                <mxCell id="31" value="Module" style="shape=module;align=left;spacingLeft=20;align=center;verticalAlign=top;" vertex="1" parent="74">
                    <mxGeometry x="219.66" y="46.469230769230776" width="115.05999999999999" height="55.76307692307693" as="geometry"/>
                </mxCell>
                <mxCell id="32" value="компонент логики меню последний открытый файл" style="shape=module;align=left;spacingLeft=20;align=center;verticalAlign=top;whiteSpace=wrap;fontSize=11;" vertex="1" parent="74">
                    <mxGeometry x="286.0539036190476" y="120.82000000000001" width="110.87599999999999" height="65.05692307692308" as="geometry"/>
                </mxCell>
                <mxCell id="33" value="Module" style="shape=module;align=left;spacingLeft=20;align=center;verticalAlign=top;" vertex="1" parent="74">
                    <mxGeometry x="355.64" y="46.469230769230776" width="125.52000000000001" height="55.76307692307693" as="geometry"/>
                </mxCell>
                <mxCell id="36" value="&lt;div style=&quot;color: rgb(212 , 212 , 212) ; background-color: rgb(30 , 30 , 30) ; font-family: &amp;#34;consolas&amp;#34; , &amp;#34;courier new&amp;#34; , monospace ; font-size: 14px ; line-height: 19px&quot;&gt;&lt;span style=&quot;color: #569cd6 ; font-weight: bold&quot;&gt;Слой №2. Правила, зависящие от программы&lt;/span&gt;&lt;/div&gt;" style="text;html=1;align=center;verticalAlign=middle;resizable=0;points=[];autosize=1;strokeColor=none;fillColor=none;" vertex="1" parent="74">
                    <mxGeometry x="51.254000000000005" y="204.4646153846154" width="320" height="20" as="geometry"/>
                </mxCell>
                <mxCell id="37" value="&lt;div style=&quot;color: rgb(212 , 212 , 212) ; background-color: rgb(30 , 30 , 30) ; font-family: &amp;#34;consolas&amp;#34; , &amp;#34;courier new&amp;#34; , monospace ; font-size: 14px ; line-height: 19px&quot;&gt;&lt;div style=&quot;font-family: &amp;#34;consolas&amp;#34; , &amp;#34;courier new&amp;#34; , monospace ; line-height: 19px&quot;&gt;&lt;span style=&quot;color: #569cd6 ; font-weight: bold&quot;&gt;Слой №3. Правила, зависящие от предметной области&lt;/span&gt;&lt;/div&gt;&lt;/div&gt;" style="text;html=1;align=center;verticalAlign=middle;resizable=0;points=[];autosize=1;strokeColor=none;fillColor=none;" vertex="1" parent="74">
                    <mxGeometry x="574.777" y="204.4646153846154" width="390" height="20" as="geometry"/>
                </mxCell>
                <mxCell id="38" value="Бизнес-логика приложения" style="text;html=1;align=center;verticalAlign=middle;resizable=0;points=[];autosize=1;strokeColor=none;fillColor=none;" vertex="1" parent="74">
                    <mxGeometry x="14.643999999999998" width="170" height="20" as="geometry"/>
                </mxCell>
                <mxCell id="51" value="" style="shape=module;align=left;spacingLeft=20;align=center;verticalAlign=top;" vertex="1" parent="74">
                    <mxGeometry x="81.065" y="46.469230769230776" width="110.87599999999999" height="55.76307692307693" as="geometry"/>
                </mxCell>
                <mxCell id="52" value="Module" style="shape=module;align=left;spacingLeft=20;align=center;verticalAlign=top;" vertex="1" parent="74">
                    <mxGeometry x="219.137" y="46.469230769230776" width="115.05999999999999" height="55.76307692307693" as="geometry"/>
                </mxCell>
                <mxCell id="53" value="Module" style="shape=module;align=left;spacingLeft=20;align=center;verticalAlign=top;" vertex="1" parent="74">
                    <mxGeometry x="355.11699999999996" y="46.469230769230776" width="125.52000000000001" height="55.76307692307693" as="geometry"/>
                </mxCell>
                <mxCell id="55" value="компонент логики меню Открыть&#10;" style="shape=module;align=left;spacingLeft=20;align=center;verticalAlign=top;whiteSpace=wrap;" vertex="1" parent="74">
                    <mxGeometry x="81.065" y="46.469230769230776" width="110.87599999999999" height="55.76307692307693" as="geometry"/>
                </mxCell>
                <mxCell id="56" value="компонент логики меню Закрыть" style="shape=module;align=left;spacingLeft=20;align=center;verticalAlign=top;whiteSpace=wrap;" vertex="1" parent="74">
                    <mxGeometry x="219.137" y="46.469230769230776" width="115.05999999999999" height="55.76307692307693" as="geometry"/>
                </mxCell>
                <mxCell id="57" value="компонент логики отмена действия/повтор действия" style="shape=module;align=left;spacingLeft=20;align=center;verticalAlign=top;whiteSpace=wrap;fontSize=11;" vertex="1" parent="74">
                    <mxGeometry x="355.11699999999996" y="46.469230769230776" width="125.52000000000001" height="55.76307692307693" as="geometry"/>
                </mxCell>
                <mxCell id="58" value="компонент логики Открыть журнал" style="shape=module;align=left;spacingLeft=20;align=center;verticalAlign=top;whiteSpace=wrap;" vertex="1" parent="74">
                    <mxGeometry x="406.07493219047615" y="120.82000000000001" width="104.6" height="65.05692307692308" as="geometry"/>
                </mxCell>
                <mxCell id="61" value="Module" style="shape=module;align=left;spacingLeft=20;align=center;verticalAlign=top;" vertex="1" parent="74">
                    <mxGeometry x="883.87" y="40.892923076923076" width="115.05999999999999" height="61.33938461538462" as="geometry"/>
                </mxCell>
                <mxCell id="63" value="" style="shape=module;align=left;spacingLeft=20;align=center;verticalAlign=top;" vertex="1" parent="74">
                    <mxGeometry x="576.6075" y="40.892923076923076" width="115.583" height="61.33938461538462" as="geometry"/>
                </mxCell>
                <mxCell id="64" value="Module" style="shape=module;align=left;spacingLeft=20;align=center;verticalAlign=top;" vertex="1" parent="74">
                    <mxGeometry x="728.8004999999998" y="40.892923076923076" width="115.05999999999999" height="61.33938461538462" as="geometry"/>
                </mxCell>
                <mxCell id="65" value="Module" style="shape=module;align=left;spacingLeft=20;align=center;verticalAlign=top;" vertex="1" parent="74">
                    <mxGeometry x="885.7005000000001" y="40.892923076923076" width="115.05999999999999" height="61.33938461538462" as="geometry"/>
                </mxCell>
                <mxCell id="66" value="Компонент логики - Окно выбора файла проекта" style="shape=module;align=left;spacingLeft=20;align=center;verticalAlign=top;whiteSpace=wrap;fontSize=10;" vertex="1" parent="74">
                    <mxGeometry x="574.777" y="40.892923076923076" width="115.583" height="61.33938461538462" as="geometry"/>
                </mxCell>
                <mxCell id="67" value="Компонент логики - Поле отображения 3D-модели" style="shape=module;align=left;spacingLeft=20;align=center;verticalAlign=top;whiteSpace=wrap;fontSize=10;" vertex="1" parent="74">
                    <mxGeometry x="726.97" y="40.892923076923076" width="115.05999999999999" height="61.33938461538462" as="geometry"/>
                </mxCell>
                <mxCell id="68" value="Компонент логики - Панель свойств объектов" style="shape=module;align=left;spacingLeft=20;align=center;verticalAlign=top;whiteSpace=wrap;fontSize=10;" vertex="1" parent="74">
                    <mxGeometry x="883.87" y="40.892923076923076" width="115.05999999999999" height="61.33938461538462" as="geometry"/>
                </mxCell>
                <mxCell id="187" value="" style="group;rotation=-360;" vertex="1" connectable="0" parent="74">
                    <mxGeometry x="286.05" y="8.590000000000032" width="40" height="10" as="geometry"/>
                </mxCell>
                <mxCell id="190" value="" style="ellipse;whiteSpace=wrap;html=1;align=center;aspect=fixed;resizable=0;points=[];outlineConnect=0;sketch=0;fontSize=10;rotation=-450;" vertex="1" parent="187">
                    <mxGeometry x="15" width="10" height="10" as="geometry"/>
                </mxCell>
                <mxCell id="192" value="" style="rounded=0;orthogonalLoop=1;jettySize=auto;html=1;endArrow=none;endFill=0;sketch=0;sourcePerimeterSpacing=0;targetPerimeterSpacing=0;fontSize=10;exitX=1;exitY=0;exitDx=0;exitDy=0;" edge="1" parent="74" target="194" source="58">
                    <mxGeometry relative="1" as="geometry">
                        <mxPoint x="490.6700000000001" y="33.589999999999975" as="sourcePoint"/>
                    </mxGeometry>
                </mxCell>
                <mxCell id="191" value="" style="group;rotation=-360;" vertex="1" connectable="0" parent="74">
                    <mxGeometry x="491" y="66.56" width="40" height="10" as="geometry"/>
                </mxCell>
                <mxCell id="194" value="" style="ellipse;whiteSpace=wrap;html=1;align=center;aspect=fixed;resizable=0;points=[];outlineConnect=0;sketch=0;fontSize=10;rotation=-450;" vertex="1" parent="191">
                    <mxGeometry x="15" width="10" height="10" as="geometry"/>
                </mxCell>
                <mxCell id="199" value="" style="group;rotation=-360;" vertex="1" connectable="0" parent="74">
                    <mxGeometry x="456" y="20.000000000000032" width="40" height="10" as="geometry"/>
                </mxCell>
                <mxCell id="202" value="" style="ellipse;whiteSpace=wrap;html=1;align=center;aspect=fixed;resizable=0;points=[];outlineConnect=0;sketch=0;fontSize=10;rotation=-450;" vertex="1" parent="199">
                    <mxGeometry x="15" width="10" height="10" as="geometry"/>
                </mxCell>
                <mxCell id="200" value="" style="rounded=0;orthogonalLoop=1;jettySize=auto;html=1;endArrow=none;endFill=0;sketch=0;sourcePerimeterSpacing=0;targetPerimeterSpacing=0;fontSize=10;exitX=0.75;exitY=0;exitDx=0;exitDy=0;" edge="1" parent="74" target="202" source="57">
                    <mxGeometry relative="1" as="geometry">
                        <mxPoint x="476" y="45.00000000000006" as="sourcePoint"/>
                    </mxGeometry>
                </mxCell>
                <mxCell id="196" value="" style="rounded=0;orthogonalLoop=1;jettySize=auto;html=1;endArrow=none;endFill=0;sketch=0;sourcePerimeterSpacing=0;targetPerimeterSpacing=0;fontSize=10;" edge="1" parent="74" target="198" source="32">
                    <mxGeometry relative="1" as="geometry">
                        <mxPoint x="351.25" y="33.59000000000003" as="sourcePoint"/>
                    </mxGeometry>
                </mxCell>
                <mxCell id="195" value="" style="group;rotation=-360;" vertex="1" connectable="0" parent="74">
                    <mxGeometry x="321.49" y="46.470000000000034" width="40" height="10" as="geometry"/>
                </mxCell>
                <mxCell id="198" value="" style="ellipse;whiteSpace=wrap;html=1;align=center;aspect=fixed;resizable=0;points=[];outlineConnect=0;sketch=0;fontSize=10;rotation=-450;" vertex="1" parent="195">
                    <mxGeometry x="15" width="10" height="10" as="geometry"/>
                </mxCell>
                <mxCell id="188" value="" style="rounded=0;orthogonalLoop=1;jettySize=auto;html=1;endArrow=none;endFill=0;sketch=0;sourcePerimeterSpacing=0;targetPerimeterSpacing=0;fontSize=10;exitX=0.75;exitY=0;exitDx=0;exitDy=0;" edge="1" parent="74" target="190" source="56">
                    <mxGeometry relative="1" as="geometry">
                        <mxPoint x="281.49" y="33.59000000000003" as="sourcePoint"/>
                    </mxGeometry>
                </mxCell>
                <mxCell id="183" value="" style="group;rotation=-360;" vertex="1" connectable="0" parent="74">
                    <mxGeometry x="191.25" y="69.35000000000002" width="40" height="10" as="geometry"/>
                </mxCell>
                <mxCell id="186" value="" style="ellipse;whiteSpace=wrap;html=1;align=center;aspect=fixed;resizable=0;points=[];outlineConnect=0;sketch=0;fontSize=10;rotation=-450;" vertex="1" parent="183">
                    <mxGeometry x="15" width="10" height="10" as="geometry"/>
                </mxCell>
                <mxCell id="184" value="" style="rounded=0;orthogonalLoop=1;jettySize=auto;html=1;endArrow=none;endFill=0;sketch=0;sourcePerimeterSpacing=0;targetPerimeterSpacing=0;fontSize=10;exitX=0.5;exitY=0;exitDx=0;exitDy=0;" edge="1" parent="74" target="186" source="30">
                    <mxGeometry relative="1" as="geometry">
                        <mxPoint x="211.25" y="94.35000000000002" as="sourcePoint"/>
                    </mxGeometry>
                </mxCell>
                <mxCell id="179" value="" style="group;rotation=-360;" vertex="1" connectable="0" parent="74">
                    <mxGeometry x="176" y="10.000000000000032" width="40" height="10" as="geometry"/>
                </mxCell>
                <mxCell id="182" value="" style="ellipse;whiteSpace=wrap;html=1;align=center;aspect=fixed;resizable=0;points=[];outlineConnect=0;sketch=0;fontSize=10;rotation=-450;" vertex="1" parent="179">
                    <mxGeometry x="15" width="10" height="10" as="geometry"/>
                </mxCell>
                <mxCell id="180" value="" style="rounded=0;orthogonalLoop=1;jettySize=auto;html=1;endArrow=none;endFill=0;sketch=0;sourcePerimeterSpacing=0;targetPerimeterSpacing=0;fontSize=10;exitX=1;exitY=0;exitDx=0;exitDy=0;" edge="1" parent="74" target="182" source="55">
                    <mxGeometry relative="1" as="geometry">
                        <mxPoint x="196" y="35.00000000000006" as="sourcePoint"/>
                    </mxGeometry>
                </mxCell>
                <mxCell id="176" value="" style="rounded=0;orthogonalLoop=1;jettySize=auto;html=1;endArrow=none;endFill=0;sketch=0;sourcePerimeterSpacing=0;targetPerimeterSpacing=0;fontSize=10;exitX=0.5;exitY=0;exitDx=0;exitDy=0;" edge="1" parent="74" target="178" source="28">
                    <mxGeometry relative="1" as="geometry">
                        <mxPoint x="67" y="120" as="sourcePoint"/>
                    </mxGeometry>
                </mxCell>
                <mxCell id="178" value="" style="ellipse;whiteSpace=wrap;html=1;align=center;aspect=fixed;resizable=0;points=[];outlineConnect=0;sketch=0;fontSize=10;rotation=-450;" vertex="1" parent="74">
                    <mxGeometry x="61.639999999999986" y="94" width="10" height="10" as="geometry"/>
                </mxCell>
                <mxCell id="225" value="" style="group;rotation=-360;" vertex="1" connectable="0" parent="74">
                    <mxGeometry x="764.5" y="10" width="40" height="10" as="geometry"/>
                </mxCell>
                <mxCell id="228" value="" style="ellipse;whiteSpace=wrap;html=1;align=center;aspect=fixed;resizable=0;points=[];outlineConnect=0;sketch=0;fontSize=10;rotation=-450;" vertex="1" parent="225">
                    <mxGeometry x="15" width="10" height="10" as="geometry"/>
                </mxCell>
                <mxCell id="237" value="" style="group;rotation=-360;" vertex="1" connectable="0" parent="74">
                    <mxGeometry x="921.4" y="10" width="40" height="10" as="geometry"/>
                </mxCell>
                <mxCell id="240" value="" style="ellipse;whiteSpace=wrap;html=1;align=center;aspect=fixed;resizable=0;points=[];outlineConnect=0;sketch=0;fontSize=10;rotation=-450;" vertex="1" parent="237">
                    <mxGeometry x="15" width="10" height="10" as="geometry"/>
                </mxCell>
                <mxCell id="221" value="" style="group;rotation=-360;" vertex="1" connectable="0" parent="74">
                    <mxGeometry x="692.19" y="94" width="40" height="10" as="geometry"/>
                </mxCell>
                <mxCell id="224" value="" style="ellipse;whiteSpace=wrap;html=1;align=center;aspect=fixed;resizable=0;points=[];outlineConnect=0;sketch=0;fontSize=10;rotation=-450;" vertex="1" parent="221">
                    <mxGeometry x="15" width="10" height="10" as="geometry"/>
                </mxCell>
                <mxCell id="241" value="" style="group;rotation=-360;" vertex="1" connectable="0" parent="74">
                    <mxGeometry x="543.92" y="89" width="40" height="10" as="geometry"/>
                </mxCell>
                <mxCell id="244" value="" style="ellipse;whiteSpace=wrap;html=1;align=center;aspect=fixed;resizable=0;points=[];outlineConnect=0;sketch=0;fontSize=10;rotation=-450;" vertex="1" parent="241">
                    <mxGeometry x="15" width="10" height="10" as="geometry"/>
                </mxCell>
                <mxCell id="242" value="" style="rounded=0;orthogonalLoop=1;jettySize=auto;html=1;endArrow=none;endFill=0;sketch=0;sourcePerimeterSpacing=0;targetPerimeterSpacing=0;fontSize=10;exitX=0.25;exitY=0;exitDx=0;exitDy=0;" edge="1" parent="74" target="244" source="21">
                    <mxGeometry relative="1" as="geometry">
                        <mxPoint x="563.92" y="114" as="sourcePoint"/>
                    </mxGeometry>
                </mxCell>
                <mxCell id="218" value="" style="rounded=0;orthogonalLoop=1;jettySize=auto;html=1;endArrow=none;endFill=0;sketch=0;sourcePerimeterSpacing=0;targetPerimeterSpacing=0;fontSize=10;exitX=0.25;exitY=0;exitDx=0;exitDy=0;" edge="1" parent="74" target="220" source="66">
                    <mxGeometry relative="1" as="geometry">
                        <mxPoint x="616" y="33.589999999999975" as="sourcePoint"/>
                    </mxGeometry>
                </mxCell>
                <mxCell id="217" value="" style="group;rotation=-360;" vertex="1" connectable="0" parent="74">
                    <mxGeometry x="583.92" y="8.59" width="40" height="10" as="geometry"/>
                </mxCell>
                <mxCell id="220" value="" style="ellipse;whiteSpace=wrap;html=1;align=center;aspect=fixed;resizable=0;points=[];outlineConnect=0;sketch=0;fontSize=10;rotation=-450;" vertex="1" parent="217">
                    <mxGeometry x="15" width="10" height="10" as="geometry"/>
                </mxCell>
                <mxCell id="222" value="" style="rounded=0;orthogonalLoop=1;jettySize=auto;html=1;endArrow=none;endFill=0;sketch=0;sourcePerimeterSpacing=0;targetPerimeterSpacing=0;fontSize=10;exitX=0.25;exitY=0;exitDx=0;exitDy=0;" edge="1" parent="74" target="224" source="24">
                    <mxGeometry relative="1" as="geometry">
                        <mxPoint x="712.19" y="119" as="sourcePoint"/>
                    </mxGeometry>
                </mxCell>
                <mxCell id="226" value="" style="rounded=0;orthogonalLoop=1;jettySize=auto;html=1;endArrow=none;endFill=0;sketch=0;sourcePerimeterSpacing=0;targetPerimeterSpacing=0;fontSize=10;exitX=0.5;exitY=0;exitDx=0;exitDy=0;" edge="1" parent="74" target="228" source="67">
                    <mxGeometry relative="1" as="geometry">
                        <mxPoint x="779" y="35" as="sourcePoint"/>
                    </mxGeometry>
                </mxCell>
                <mxCell id="238" value="" style="rounded=0;orthogonalLoop=1;jettySize=auto;html=1;endArrow=none;endFill=0;sketch=0;sourcePerimeterSpacing=0;targetPerimeterSpacing=0;fontSize=10;" edge="1" parent="74" target="240" source="68">
                    <mxGeometry relative="1" as="geometry">
                        <mxPoint x="946" y="35" as="sourcePoint"/>
                    </mxGeometry>
                </mxCell>
                <mxCell id="234" value="" style="rounded=0;orthogonalLoop=1;jettySize=auto;html=1;endArrow=none;endFill=0;sketch=0;sourcePerimeterSpacing=0;targetPerimeterSpacing=0;fontSize=10;exitX=0.75;exitY=0;exitDx=0;exitDy=0;" edge="1" parent="74" target="236" source="25">
                    <mxGeometry relative="1" as="geometry">
                        <mxPoint x="866" y="119" as="sourcePoint"/>
                    </mxGeometry>
                </mxCell>
                <mxCell id="233" value="" style="group;rotation=-360;" vertex="1" connectable="0" parent="74">
                    <mxGeometry x="842.03" y="8.590000000000003" width="40" height="10" as="geometry"/>
                </mxCell>
                <mxCell id="236" value="" style="ellipse;whiteSpace=wrap;html=1;align=center;aspect=fixed;resizable=0;points=[];outlineConnect=0;sketch=0;fontSize=10;rotation=-450;" vertex="1" parent="233">
                    <mxGeometry x="15" width="10" height="10" as="geometry"/>
                </mxCell>
                <mxCell id="230" value="" style="rounded=0;orthogonalLoop=1;jettySize=auto;html=1;endArrow=none;endFill=0;sketch=0;sourcePerimeterSpacing=0;targetPerimeterSpacing=0;fontSize=10;exitX=1;exitY=0;exitDx=0;exitDy=0;" edge="1" parent="74" target="232" source="27">
                    <mxGeometry relative="1" as="geometry">
                        <mxPoint x="1018.9300000000001" y="118" as="sourcePoint"/>
                        <Array as="points">
                            <mxPoint x="1005" y="110"/>
                        </Array>
                    </mxGeometry>
                </mxCell>
                <mxCell id="229" value="" style="group;rotation=-360;" vertex="1" connectable="0" parent="74">
                    <mxGeometry x="985.0800000000002" y="8.590000000000003" width="40" height="10" as="geometry"/>
                </mxCell>
                <mxCell id="232" value="" style="ellipse;whiteSpace=wrap;html=1;align=center;aspect=fixed;resizable=0;points=[];outlineConnect=0;sketch=0;fontSize=10;rotation=-450;" vertex="1" parent="229">
                    <mxGeometry x="15" width="10" height="10" as="geometry"/>
                </mxCell>
                <mxCell id="75" value="" style="group" vertex="1" connectable="0" parent="1">
                    <mxGeometry x="79.22908366533865" y="639.9991391678623" width="1040.5876494023903" height="168.20086083213772" as="geometry"/>
                </mxCell>
                <mxCell id="5" value="" style="rounded=1;whiteSpace=wrap;html=1;" vertex="1" parent="75">
                    <mxGeometry width="1040.5876494023905" height="168.20086083213772" as="geometry"/>
                </mxCell>
                <mxCell id="39" value="&lt;div style=&quot;color: rgb(212 , 212 , 212) ; background-color: rgb(30 , 30 , 30) ; font-family: &amp;#34;consolas&amp;#34; , &amp;#34;courier new&amp;#34; , monospace ; font-size: 14px ; line-height: 19px&quot;&gt;&lt;span style=&quot;color: #569cd6 ; font-weight: bold&quot;&gt;Слой №4. Слой данных&lt;/span&gt;&lt;span style=&quot;color: rgb(86 , 156 , 214) ; font-weight: bold&quot;&gt;Слой №4. Слой данных&lt;/span&gt;&lt;/div&gt;" style="text;html=1;align=center;verticalAlign=middle;resizable=0;points=[];autosize=1;strokeColor=none;fillColor=none;" vertex="1" parent="75">
                    <mxGeometry x="687.7965815310188" y="10.512553802008608" width="320" height="20" as="geometry"/>
                </mxCell>
                <mxCell id="42" value="файлы текстур - Текстуры" style="shape=module;align=left;spacingLeft=20;align=center;verticalAlign=top;" vertex="1" parent="75">
                    <mxGeometry x="546.8394280022767" y="52.56276901004304" width="318.5472396129767" height="57.81904591104735" as="geometry"/>
                </mxCell>
                <mxCell id="73" value="" style="group" vertex="1" connectable="0" parent="75">
                    <mxGeometry x="41.41114114968697" y="26.28138450502152" width="335.5364257256688" height="126.15064562410329" as="geometry"/>
                </mxCell>
                <mxCell id="72" value="" style="shape=module;align=left;spacingLeft=20;align=center;verticalAlign=top;fontSize=10;" vertex="1" parent="73">
                    <mxGeometry width="335.5364257256688" height="126.15064562410329" as="geometry"/>
                </mxCell>
                <mxCell id="41" value="файл проекта - + Перечень всех объектов проекта" style="shape=module;align=left;spacingLeft=20;align=center;verticalAlign=top;whiteSpace=wrap;fontSize=10;" vertex="1" parent="73">
                    <mxGeometry x="93.67058551508252" y="9.010760401721665" width="223.69095048377915" height="36.04304160688666" as="geometry"/>
                </mxCell>
                <mxCell id="43" value="файл проекта - Данные по освещенности" style="shape=module;align=left;spacingLeft=20;align=center;verticalAlign=top;whiteSpace=wrap;fontSize=10;" vertex="1" parent="73">
                    <mxGeometry x="90.17541441377347" y="45.05380200860832" width="227.18612158508824" height="36.04304160688666" as="geometry"/>
                </mxCell>
                <mxCell id="44" value="файл проекта - Координаты вершин полигонов и ребер" style="shape=module;align=left;spacingLeft=20;align=center;verticalAlign=top;whiteSpace=wrap;fontSize=10;" vertex="1" parent="73">
                    <mxGeometry x="90.17541441377347" y="81.09684361549498" width="227.18612158508824" height="36.04304160688666" as="geometry"/>
                </mxCell>
                <mxCell id="281" value="" style="group;rotation=90;" vertex="1" connectable="0" parent="75">
                    <mxGeometry x="506.8409163346614" y="-86.66913916786234" width="40" height="97.185" as="geometry"/>
                </mxCell>
                <mxCell id="282" value="" style="html=1;rounded=0;fontSize=10;direction=west;rotation=-90;" vertex="1" parent="281">
                    <mxGeometry x="3.4400000000000546" y="-3.4350000000000023" width="32.5" height="39.37" as="geometry"/>
                </mxCell>
                <mxCell id="283" value="" style="ellipse;html=1;fontSize=11;align=center;fillColor=none;points=[];aspect=fixed;resizable=0;verticalAlign=bottom;labelPosition=center;verticalLabelPosition=top;flipH=1;rotation=-269;" vertex="1" parent="281">
                    <mxGeometry x="15.685309523809565" y="42.495000000000005" width="8" height="8" as="geometry"/>
                </mxCell>
                <mxCell id="284" value="" style="endArrow=none;html=1;rounded=0;align=center;verticalAlign=top;endFill=0;labelBackgroundColor=none;endSize=2;fontSize=10;exitX=1;exitY=0.5;exitDx=0;exitDy=0;" edge="1" parent="281" source="282" target="283">
                    <mxGeometry relative="1" as="geometry">
                        <mxPoint x="24.690000000000055" y="30" as="sourcePoint"/>
                        <mxPoint x="24.690000000000055" y="62.495000000000005" as="targetPoint"/>
                    </mxGeometry>
                </mxCell>
                <mxCell id="285" value="" style="shape=requiredInterface;html=1;fontSize=11;align=center;fillColor=none;points=[];aspect=fixed;resizable=0;verticalAlign=bottom;labelPosition=center;verticalLabelPosition=top;flipH=1;rotation=-90;" vertex="1" parent="281">
                    <mxGeometry x="17.190000000000055" y="45.495000000000005" width="5" height="10" as="geometry"/>
                </mxCell>
                <mxCell id="286" value="" style="endArrow=none;html=1;rounded=0;align=center;verticalAlign=top;endFill=0;labelBackgroundColor=none;endSize=2;fontSize=10;entryX=1.02;entryY=0.48;entryDx=0;entryDy=0;entryPerimeter=0;" edge="1" parent="281" source="287" target="285">
                    <mxGeometry relative="1" as="geometry"/>
                </mxCell>
                <mxCell id="287" value="" style="html=1;rounded=0;fontSize=10;rotation=-90;" vertex="1" parent="281">
                    <mxGeometry x="5" y="62.185" width="30" height="40" as="geometry"/>
                </mxCell>
                <mxCell id="113" value="" style="group" vertex="1" connectable="0" parent="1">
                    <mxGeometry x="78.18" y="14.94" width="1053.82" height="245.06" as="geometry"/>
                </mxCell>
                <mxCell id="2" value="" style="rounded=1;whiteSpace=wrap;html=1;" vertex="1" parent="113">
                    <mxGeometry y="19.44350486989761" width="1045.82" height="165.6164951301024" as="geometry"/>
                </mxCell>
                <mxCell id="6" value=" Сохранить" style="shape=module;align=left;spacingLeft=20;align=center;verticalAlign=top;whiteSpace=wrap;" vertex="1" parent="113">
                    <mxGeometry x="41.8368637577143" y="112.6052246614636" width="103.98032481371428" height="50.804101446865324" as="geometry"/>
                </mxCell>
                <mxCell id="7" value=" Открыть&#10;" style="shape=module;align=left;spacingLeft=20;align=center;verticalAlign=middle;whiteSpace=wrap;" vertex="1" parent="113">
                    <mxGeometry x="95.81703238095238" y="29.792108484822073" width="92.43028873371428" height="55.83103359002884" as="geometry"/>
                </mxCell>
                <mxCell id="8" value="последний открытый файл" style="shape=module;align=left;spacingLeft=20;align=center;verticalAlign=top;whiteSpace=wrap;" vertex="1" parent="113">
                    <mxGeometry x="313.7477131527619" y="114.79296108740516" width="102.07031884723808" height="49.569245775333854" as="geometry"/>
                </mxCell>
                <mxCell id="9" value="отмена действия/повтор действия" style="shape=module;align=left;spacingLeft=20;align=center;verticalAlign=top;whiteSpace=wrap;fontSize=8;" vertex="1" parent="113">
                    <mxGeometry x="365.8178758095238" y="29.792108484822073" width="99.57031103771428" height="55.83103359002884" as="geometry"/>
                </mxCell>
                <mxCell id="10" value="Сохранить как" style="shape=module;align=left;spacingLeft=20;align=center;verticalAlign=top;whiteSpace=wrap;" vertex="1" parent="113">
                    <mxGeometry x="177.78728843961903" y="112.6052246614636" width="98.03030622704762" height="50.804101446865324" as="geometry"/>
                </mxCell>
                <mxCell id="11" value=" Закрыть" style="shape=module;align=left;spacingLeft=20;align=center;verticalAlign=top;whiteSpace=wrap;" vertex="1" parent="113">
                    <mxGeometry x="235.81746971428572" y="29.792108484822073" width="88.3902761135238" height="55.83103359002884" as="geometry"/>
                </mxCell>
                <mxCell id="12" value="Поле отображения 3D-модели" style="shape=module;align=left;spacingLeft=20;align=center;verticalAlign=top;whiteSpace=wrap;fontSize=10;" vertex="1" parent="113">
                    <mxGeometry x="635.8187192380951" y="29.792108484822073" width="112.99035295923808" height="51.75698220127542" as="geometry"/>
                </mxCell>
                <mxCell id="13" value="Окно выбора файла проекта" style="shape=module;align=left;spacingLeft=20;align=center;verticalAlign=top;whiteSpace=wrap;fontSize=9;" vertex="1" parent="113">
                    <mxGeometry x="495.8182819047619" y="29.792108484822073" width="110.00034361904761" height="55.83103359002884" as="geometry"/>
                </mxCell>
                <mxCell id="14" value="Панель свойств объектов" style="shape=module;align=left;spacingLeft=20;align=center;verticalAlign=top;whiteSpace=wrap;" vertex="1" parent="113">
                    <mxGeometry x="775.8191565714285" y="29.792108484822073" width="111.82034930438094" height="51.75698220127542" as="geometry"/>
                </mxCell>
                <mxCell id="15" value="Панель со списком всех объектов проекта, с отображением их зависимостей" style="shape=module;align=left;spacingLeft=20;align=center;verticalAlign=top;whiteSpace=wrap;fontSize=9;" vertex="1" parent="113">
                    <mxGeometry x="583.7886199999999" y="112.6027833805802" width="156.87299999999996" height="51.75515472815699" as="geometry"/>
                </mxCell>
                <mxCell id="16" value="Панель основного меню" style="shape=module;align=left;spacingLeft=20;align=center;verticalAlign=top;whiteSpace=wrap;fontSize=11;" vertex="1" parent="113">
                    <mxGeometry x="925.819625142857" y="29.792108484822073" width="109.54034218209523" height="51.75698220127542" as="geometry"/>
                </mxCell>
                <mxCell id="17" value="Открыть журнал" style="shape=module;align=left;spacingLeft=20;align=center;verticalAlign=top;whiteSpace=wrap;" vertex="1" parent="113">
                    <mxGeometry x="441.8181132190476" y="112.12878428425853" width="104.00032487619046" height="51.75698220127542" as="geometry"/>
                </mxCell>
                <mxCell id="18" value="Шкала времени" style="shape=module;align=left;spacingLeft=20;align=center;verticalAlign=top;whiteSpace=wrap;" vertex="1" parent="113">
                    <mxGeometry x="766.8090721973332" y="112.6052246614636" width="107.01033427885714" height="51.75698220127542" as="geometry"/>
                </mxCell>
                <mxCell id="19" value="Панель инструментов" style="shape=module;align=left;spacingLeft=20;align=center;verticalAlign=top;whiteSpace=wrap;fontSize=10;" vertex="1" parent="113">
                    <mxGeometry x="905.6395058758095" y="112.6052246614636" width="108.18033793371428" height="51.75698220127542" as="geometry"/>
                </mxCell>
                <mxCell id="35" value="&lt;div style=&quot;color: rgb(212 , 212 , 212) ; background-color: rgb(30 , 30 , 30) ; font-family: &amp;#34;consolas&amp;#34; , &amp;#34;courier new&amp;#34; , monospace ; font-size: 14px ; line-height: 19px&quot;&gt;&lt;span style=&quot;color: #569cd6 ; font-weight: bold&quot;&gt;Слой №1. UI/UX интерфейс пользователя&lt;/span&gt;&lt;/div&gt;" style="text;html=1;align=center;verticalAlign=middle;resizable=0;points=[];autosize=1;strokeColor=none;fillColor=none;" vertex="1" parent="113">
                    <mxGeometry x="13.750003279999996" y="-6.072560319867641" width="300" height="20" as="geometry"/>
                </mxCell>
                <mxCell id="147" value="" style="rounded=0;orthogonalLoop=1;jettySize=auto;html=1;endArrow=none;endFill=0;sketch=0;sourcePerimeterSpacing=0;targetPerimeterSpacing=0;fontSize=10;exitX=0.5;exitY=1;exitDx=0;exitDy=0;" edge="1" parent="113" target="149" source="9">
                    <mxGeometry relative="1" as="geometry">
                        <mxPoint x="431.82" y="110.06" as="sourcePoint"/>
                    </mxGeometry>
                </mxCell>
                <mxCell id="146" value="" style="group;rotation=-180;" vertex="1" connectable="0" parent="113">
                    <mxGeometry x="395.6" y="97.25" width="40" height="10" as="geometry"/>
                </mxCell>
                <mxCell id="149" value="" style="ellipse;whiteSpace=wrap;html=1;align=center;aspect=fixed;resizable=0;points=[];outlineConnect=0;sketch=0;fontSize=10;rotation=-270;" vertex="1" parent="146">
                    <mxGeometry x="15" width="10" height="10" as="geometry"/>
                </mxCell>
                <mxCell id="151" value="" style="rounded=0;orthogonalLoop=1;jettySize=auto;html=1;endArrow=none;endFill=0;sketch=0;sourcePerimeterSpacing=0;targetPerimeterSpacing=0;fontSize=10;exitX=0.75;exitY=1;exitDx=0;exitDy=0;" edge="1" parent="113" target="153" source="11">
                    <mxGeometry relative="1" as="geometry">
                        <mxPoint x="295.82" y="89.79" as="sourcePoint"/>
                    </mxGeometry>
                </mxCell>
                <mxCell id="150" value="" style="group;rotation=-180;" vertex="1" connectable="0" parent="113">
                    <mxGeometry x="275.82" y="154.36" width="40" height="10" as="geometry"/>
                </mxCell>
                <mxCell id="153" value="" style="ellipse;whiteSpace=wrap;html=1;align=center;aspect=fixed;resizable=0;points=[];outlineConnect=0;sketch=0;fontSize=10;rotation=-270;" vertex="1" parent="150">
                    <mxGeometry x="15" width="10" height="10" as="geometry"/>
                </mxCell>
                <mxCell id="163" value="" style="rounded=0;orthogonalLoop=1;jettySize=auto;html=1;endArrow=none;endFill=0;sketch=0;sourcePerimeterSpacing=0;targetPerimeterSpacing=0;fontSize=10;exitX=0.75;exitY=1;exitDx=0;exitDy=0;" edge="1" parent="113" target="165" source="7">
                    <mxGeometry relative="1" as="geometry">
                        <mxPoint x="163.75" y="97.61" as="sourcePoint"/>
                    </mxGeometry>
                </mxCell>
                <mxCell id="162" value="" style="group;rotation=-180;" vertex="1" connectable="0" parent="113">
                    <mxGeometry x="143.75" y="205.06" width="40" height="10" as="geometry"/>
                </mxCell>
                <mxCell id="165" value="" style="ellipse;whiteSpace=wrap;html=1;align=center;aspect=fixed;resizable=0;points=[];outlineConnect=0;sketch=0;fontSize=10;rotation=-270;" vertex="1" parent="162">
                    <mxGeometry x="15" width="10" height="10" as="geometry"/>
                </mxCell>
                <mxCell id="167" value="" style="rounded=0;orthogonalLoop=1;jettySize=auto;html=1;endArrow=none;endFill=0;sketch=0;sourcePerimeterSpacing=0;targetPerimeterSpacing=0;fontSize=10;exitX=0.5;exitY=1;exitDx=0;exitDy=0;" edge="1" parent="113" target="169" source="6">
                    <mxGeometry relative="1" as="geometry">
                        <mxPoint x="93.82999999999998" y="170.06" as="sourcePoint"/>
                    </mxGeometry>
                </mxCell>
                <mxCell id="166" value="" style="group;rotation=-180;" vertex="1" connectable="0" parent="113">
                    <mxGeometry x="73.82999999999998" y="215.06" width="40" height="10" as="geometry"/>
                </mxCell>
                <mxCell id="169" value="" style="ellipse;whiteSpace=wrap;html=1;align=center;aspect=fixed;resizable=0;points=[];outlineConnect=0;sketch=0;fontSize=10;rotation=-270;" vertex="1" parent="166">
                    <mxGeometry x="15" width="10" height="10" as="geometry"/>
                </mxCell>
                <mxCell id="271" value="" style="group;rotation=-540;" vertex="1" connectable="0" parent="113">
                    <mxGeometry x="605.8199999999999" y="185.06" width="40" height="10" as="geometry"/>
                </mxCell>
                <mxCell id="274" value="" style="ellipse;whiteSpace=wrap;html=1;align=center;aspect=fixed;resizable=0;points=[];outlineConnect=0;sketch=0;fontSize=10;rotation=-630;" vertex="1" parent="271">
                    <mxGeometry x="15" width="10" height="10" as="geometry"/>
                </mxCell>
                <mxCell id="267" value="" style="group;rotation=-540;" vertex="1" connectable="0" parent="113">
                    <mxGeometry x="735.8199999999999" y="110.06" width="40" height="10" as="geometry"/>
                </mxCell>
                <mxCell id="270" value="" style="ellipse;whiteSpace=wrap;html=1;align=center;aspect=fixed;resizable=0;points=[];outlineConnect=0;sketch=0;fontSize=10;rotation=-630;" vertex="1" parent="267">
                    <mxGeometry x="15" width="10" height="10" as="geometry"/>
                </mxCell>
                <mxCell id="255" value="" style="group;rotation=-540;" vertex="1" connectable="0" parent="113">
                    <mxGeometry x="775.8199999999999" y="185.06" width="40" height="10" as="geometry"/>
                </mxCell>
                <mxCell id="258" value="" style="ellipse;whiteSpace=wrap;html=1;align=center;aspect=fixed;resizable=0;points=[];outlineConnect=0;sketch=0;fontSize=10;rotation=-630;" vertex="1" parent="255">
                    <mxGeometry x="15" width="10" height="10" as="geometry"/>
                </mxCell>
                <mxCell id="251" value="" style="group;rotation=-540;" vertex="1" connectable="0" parent="113">
                    <mxGeometry x="873.8199999999999" y="95.06" width="40" height="10" as="geometry"/>
                </mxCell>
                <mxCell id="254" value="" style="ellipse;whiteSpace=wrap;html=1;align=center;aspect=fixed;resizable=0;points=[];outlineConnect=0;sketch=0;fontSize=10;rotation=-630;" vertex="1" parent="251">
                    <mxGeometry x="15" width="10" height="10" as="geometry"/>
                </mxCell>
                <mxCell id="264" value="" style="rounded=0;orthogonalLoop=1;jettySize=auto;html=1;endArrow=none;endFill=0;sketch=0;sourcePerimeterSpacing=0;targetPerimeterSpacing=0;fontSize=10;exitX=0.75;exitY=1;exitDx=0;exitDy=0;" edge="1" parent="113" target="266" source="13">
                    <mxGeometry relative="1" as="geometry">
                        <mxPoint x="566.8199999999999" y="95.06" as="sourcePoint"/>
                    </mxGeometry>
                </mxCell>
                <mxCell id="266" value="" style="ellipse;whiteSpace=wrap;html=1;align=center;aspect=fixed;resizable=0;points=[];outlineConnect=0;sketch=0;fontSize=10;rotation=-630;" vertex="1" parent="113">
                    <mxGeometry x="561.8199999999999" y="110.06" width="10" height="10" as="geometry"/>
                </mxCell>
                <mxCell id="272" value="" style="rounded=0;orthogonalLoop=1;jettySize=auto;html=1;endArrow=none;endFill=0;sketch=0;sourcePerimeterSpacing=0;targetPerimeterSpacing=0;fontSize=10;exitX=0.27;exitY=0.998;exitDx=0;exitDy=0;exitPerimeter=0;" edge="1" parent="113" target="274" source="15">
                    <mxGeometry relative="1" as="geometry">
                        <mxPoint x="625.8199999999999" y="170.06" as="sourcePoint"/>
                    </mxGeometry>
                </mxCell>
                <mxCell id="268" value="" style="rounded=0;orthogonalLoop=1;jettySize=auto;html=1;endArrow=none;endFill=0;sketch=0;sourcePerimeterSpacing=0;targetPerimeterSpacing=0;fontSize=10;exitX=1;exitY=1;exitDx=0;exitDy=0;" edge="1" parent="113" target="270" source="12">
                    <mxGeometry relative="1" as="geometry">
                        <mxPoint x="755.8199999999999" y="95.06" as="sourcePoint"/>
                    </mxGeometry>
                </mxCell>
                <mxCell id="256" value="" style="rounded=0;orthogonalLoop=1;jettySize=auto;html=1;endArrow=none;endFill=0;sketch=0;sourcePerimeterSpacing=0;targetPerimeterSpacing=0;fontSize=10;exitX=0.275;exitY=0.99;exitDx=0;exitDy=0;exitPerimeter=0;" edge="1" parent="113" target="258" source="18">
                    <mxGeometry relative="1" as="geometry">
                        <mxPoint x="795.8199999999999" y="170.06" as="sourcePoint"/>
                    </mxGeometry>
                </mxCell>
                <mxCell id="252" value="" style="rounded=0;orthogonalLoop=1;jettySize=auto;html=1;endArrow=none;endFill=0;sketch=0;sourcePerimeterSpacing=0;targetPerimeterSpacing=0;fontSize=10;exitX=1;exitY=0.5;exitDx=0;exitDy=0;" edge="1" parent="113" target="254" source="14">
                    <mxGeometry relative="1" as="geometry">
                        <mxPoint x="893.8199999999999" y="80.06" as="sourcePoint"/>
                        <Array as="points">
                            <mxPoint x="893.8199999999999" y="56.06"/>
                        </Array>
                    </mxGeometry>
                </mxCell>
                <mxCell id="260" value="" style="rounded=0;orthogonalLoop=1;jettySize=auto;html=1;endArrow=none;endFill=0;sketch=0;sourcePerimeterSpacing=0;targetPerimeterSpacing=0;fontSize=10;exitX=0.5;exitY=1;exitDx=0;exitDy=0;" edge="1" parent="113" target="262" source="19">
                    <mxGeometry relative="1" as="geometry">
                        <mxPoint x="961.8199999999999" y="170.06" as="sourcePoint"/>
                    </mxGeometry>
                </mxCell>
                <mxCell id="259" value="" style="group;rotation=-540;" vertex="1" connectable="0" parent="113">
                    <mxGeometry x="939.7299999999999" y="194.45" width="40" height="10" as="geometry"/>
                </mxCell>
                <mxCell id="262" value="" style="ellipse;whiteSpace=wrap;html=1;align=center;aspect=fixed;resizable=0;points=[];outlineConnect=0;sketch=0;fontSize=10;rotation=-630;" vertex="1" parent="259">
                    <mxGeometry x="15" width="10" height="10" as="geometry"/>
                </mxCell>
                <mxCell id="276" value="" style="rounded=0;orthogonalLoop=1;jettySize=auto;html=1;endArrow=none;endFill=0;sketch=0;sourcePerimeterSpacing=0;targetPerimeterSpacing=0;fontSize=10;exitX=1;exitY=1;exitDx=0;exitDy=0;" edge="1" parent="113" target="278" source="16">
                    <mxGeometry relative="1" as="geometry">
                        <mxPoint x="1033.82" y="90.06" as="sourcePoint"/>
                    </mxGeometry>
                </mxCell>
                <mxCell id="275" value="" style="group;rotation=-540;" vertex="1" connectable="0" parent="113">
                    <mxGeometry x="1013.8199999999999" y="95.06" width="40" height="10" as="geometry"/>
                </mxCell>
                <mxCell id="278" value="" style="ellipse;whiteSpace=wrap;html=1;align=center;aspect=fixed;resizable=0;points=[];outlineConnect=0;sketch=0;fontSize=10;rotation=-630;" vertex="1" parent="275">
                    <mxGeometry x="15" width="10" height="10" as="geometry"/>
                </mxCell>
                <mxCell id="135" value="" style="group;rotation=90;" vertex="1" connectable="0" parent="1">
                    <mxGeometry x="583" y="222.82" width="40" height="97.185" as="geometry"/>
                </mxCell>
                <mxCell id="136" value="" style="html=1;rounded=0;fontSize=10;direction=west;rotation=-90;" vertex="1" parent="135">
                    <mxGeometry x="3.4400000000000546" y="-3.4350000000000023" width="32.5" height="39.37" as="geometry"/>
                </mxCell>
                <mxCell id="137" value="" style="ellipse;html=1;fontSize=11;align=center;fillColor=none;points=[];aspect=fixed;resizable=0;verticalAlign=bottom;labelPosition=center;verticalLabelPosition=top;flipH=1;rotation=-269;" vertex="1" parent="135">
                    <mxGeometry x="15.685309523809565" y="42.495000000000005" width="8" height="8" as="geometry"/>
                </mxCell>
                <mxCell id="138" value="" style="endArrow=none;html=1;rounded=0;align=center;verticalAlign=top;endFill=0;labelBackgroundColor=none;endSize=2;fontSize=10;exitX=1;exitY=0.5;exitDx=0;exitDy=0;" edge="1" parent="135" source="136" target="137">
                    <mxGeometry relative="1" as="geometry">
                        <mxPoint x="24.690000000000055" y="30" as="sourcePoint"/>
                        <mxPoint x="24.690000000000055" y="62.495000000000005" as="targetPoint"/>
                    </mxGeometry>
                </mxCell>
                <mxCell id="139" value="" style="shape=requiredInterface;html=1;fontSize=11;align=center;fillColor=none;points=[];aspect=fixed;resizable=0;verticalAlign=bottom;labelPosition=center;verticalLabelPosition=top;flipH=1;rotation=-90;" vertex="1" parent="135">
                    <mxGeometry x="17.190000000000055" y="45.495000000000005" width="5" height="10" as="geometry"/>
                </mxCell>
                <mxCell id="140" value="" style="endArrow=none;html=1;rounded=0;align=center;verticalAlign=top;endFill=0;labelBackgroundColor=none;endSize=2;fontSize=10;entryX=1.02;entryY=0.48;entryDx=0;entryDy=0;entryPerimeter=0;" edge="1" parent="135" source="141" target="139">
                    <mxGeometry relative="1" as="geometry"/>
                </mxCell>
                <mxCell id="141" value="" style="html=1;rounded=0;fontSize=10;rotation=-90;" vertex="1" parent="135">
                    <mxGeometry x="5" y="62.185" width="30" height="40" as="geometry"/>
                </mxCell>
                <mxCell id="154" value="" style="group;rotation=-180;" vertex="1" connectable="0" parent="1">
                    <mxGeometry x="310" y="210" width="40" height="10" as="geometry"/>
                </mxCell>
                <mxCell id="157" value="" style="ellipse;whiteSpace=wrap;html=1;align=center;aspect=fixed;resizable=0;points=[];outlineConnect=0;sketch=0;fontSize=10;rotation=-270;" vertex="1" parent="154">
                    <mxGeometry x="15" width="10" height="10" as="geometry"/>
                </mxCell>
                <mxCell id="170" value="" style="group;rotation=-180;" vertex="1" connectable="0" parent="1">
                    <mxGeometry x="490" y="210" width="40" height="10" as="geometry"/>
                </mxCell>
                <mxCell id="173" value="" style="ellipse;whiteSpace=wrap;html=1;align=center;aspect=fixed;resizable=0;points=[];outlineConnect=0;sketch=0;fontSize=10;rotation=-270;" vertex="1" parent="170">
                    <mxGeometry x="15" width="10" height="10" as="geometry"/>
                </mxCell>
                <mxCell id="208" value="" style="group;rotation=90;" vertex="1" connectable="0" parent="1">
                    <mxGeometry x="543.57" y="170" width="10" height="40" as="geometry"/>
                </mxCell>
                <mxCell id="144" value="" style="ellipse;whiteSpace=wrap;html=1;align=center;aspect=fixed;resizable=0;points=[];outlineConnect=0;sketch=0;fontSize=10;rotation=90;direction=west;" vertex="1" parent="208">
                    <mxGeometry y="15" width="10" height="10" as="geometry"/>
                </mxCell>
                <mxCell id="142" value="" style="rounded=0;orthogonalLoop=1;jettySize=auto;html=1;endArrow=none;endFill=0;sketch=0;sourcePerimeterSpacing=0;targetPerimeterSpacing=0;fontSize=10;exitX=0.25;exitY=1;exitDx=0;exitDy=0;" edge="1" target="144" parent="1" source="17">
                    <mxGeometry relative="1" as="geometry">
                        <mxPoint x="550" y="211" as="sourcePoint"/>
                    </mxGeometry>
                </mxCell>
                <mxCell id="143" value="" style="rounded=0;orthogonalLoop=1;jettySize=auto;html=1;endArrow=halfCircle;endFill=0;entryX=0.5;entryY=0.5;endSize=6;strokeWidth=1;sketch=0;fontSize=10;exitX=0;exitY=1;exitDx=0;exitDy=0;" edge="1" target="144" parent="1" source="136">
                    <mxGeometry relative="1" as="geometry">
                        <mxPoint x="555" y="230" as="sourcePoint"/>
                    </mxGeometry>
                </mxCell>
                <mxCell id="171" value="" style="rounded=0;orthogonalLoop=1;jettySize=auto;html=1;endArrow=none;endFill=0;sketch=0;sourcePerimeterSpacing=0;targetPerimeterSpacing=0;fontSize=10;exitX=0.75;exitY=1;exitDx=0;exitDy=0;" edge="1" parent="1" target="173" source="8">
                    <mxGeometry relative="1" as="geometry">
                        <mxPoint x="510" y="195" as="sourcePoint"/>
                    </mxGeometry>
                </mxCell>
                <mxCell id="172" value="" style="rounded=0;orthogonalLoop=1;jettySize=auto;html=1;endArrow=halfCircle;endFill=0;entryX=0.5;entryY=0.5;endSize=6;strokeWidth=1;sketch=0;fontSize=10;exitX=0.25;exitY=1;exitDx=0;exitDy=0;" edge="1" parent="1" target="173" source="136">
                    <mxGeometry relative="1" as="geometry">
                        <mxPoint x="510" y="235" as="sourcePoint"/>
                    </mxGeometry>
                </mxCell>
                <mxCell id="148" value="" style="rounded=0;orthogonalLoop=1;jettySize=auto;html=1;endArrow=halfCircle;endFill=0;entryX=0.5;entryY=0.5;endSize=6;strokeWidth=1;sketch=0;fontSize=10;exitX=0.25;exitY=1;exitDx=0;exitDy=0;" edge="1" parent="1" target="149" source="136">
                    <mxGeometry relative="1" as="geometry">
                        <mxPoint x="510" y="165" as="sourcePoint"/>
                        <Array as="points">
                            <mxPoint x="510" y="190"/>
                            <mxPoint x="510" y="180"/>
                            <mxPoint x="510" y="117"/>
                        </Array>
                    </mxGeometry>
                </mxCell>
                <mxCell id="152" value="" style="rounded=0;orthogonalLoop=1;jettySize=auto;html=1;endArrow=halfCircle;endFill=0;entryX=0.5;entryY=0.5;endSize=6;strokeWidth=1;sketch=0;fontSize=10;exitX=0.5;exitY=1;exitDx=0;exitDy=0;" edge="1" parent="1" target="153" source="136">
                    <mxGeometry relative="1" as="geometry">
                        <mxPoint x="374" y="194.3" as="sourcePoint"/>
                        <Array as="points">
                            <mxPoint x="374" y="210"/>
                        </Array>
                    </mxGeometry>
                </mxCell>
                <mxCell id="155" value="" style="rounded=0;orthogonalLoop=1;jettySize=auto;html=1;endArrow=none;endFill=0;sketch=0;sourcePerimeterSpacing=0;targetPerimeterSpacing=0;fontSize=10;exitX=0.75;exitY=1;exitDx=0;exitDy=0;" edge="1" parent="1" target="157" source="10">
                    <mxGeometry relative="1" as="geometry">
                        <mxPoint x="310" y="195" as="sourcePoint"/>
                    </mxGeometry>
                </mxCell>
                <mxCell id="156" value="" style="rounded=0;orthogonalLoop=1;jettySize=auto;html=1;endArrow=halfCircle;endFill=0;entryX=0.5;entryY=0.5;endSize=6;strokeWidth=1;sketch=0;fontSize=10;exitX=0.5;exitY=1;exitDx=0;exitDy=0;" edge="1" parent="1" target="157" source="136">
                    <mxGeometry relative="1" as="geometry">
                        <mxPoint x="330" y="235" as="sourcePoint"/>
                    </mxGeometry>
                </mxCell>
                <mxCell id="164" value="" style="rounded=0;orthogonalLoop=1;jettySize=auto;html=1;endArrow=halfCircle;endFill=0;entryX=0.5;entryY=0.5;endSize=6;strokeWidth=1;sketch=0;fontSize=10;exitX=0.75;exitY=1;exitDx=0;exitDy=0;" edge="1" parent="1" target="165" source="136">
                    <mxGeometry relative="1" as="geometry">
                        <mxPoint x="580" y="239" as="sourcePoint"/>
                    </mxGeometry>
                </mxCell>
                <mxCell id="168" value="" style="rounded=0;orthogonalLoop=1;jettySize=auto;html=1;endArrow=halfCircle;endFill=0;entryX=0.5;entryY=0.5;endSize=6;strokeWidth=1;sketch=0;fontSize=10;exitX=1;exitY=1;exitDx=0;exitDy=0;" edge="1" parent="1" target="169" source="136">
                    <mxGeometry relative="1" as="geometry">
                        <mxPoint x="580" y="250" as="sourcePoint"/>
                    </mxGeometry>
                </mxCell>
                <mxCell id="193" value="" style="rounded=0;orthogonalLoop=1;jettySize=auto;html=1;endArrow=halfCircle;endFill=0;entryX=0.5;entryY=0.5;endSize=6;strokeWidth=1;sketch=0;fontSize=10;exitX=0;exitY=0.5;exitDx=0;exitDy=0;" edge="1" parent="1" target="194" source="141">
                    <mxGeometry relative="1" as="geometry">
                        <mxPoint x="585" y="371.56" as="sourcePoint"/>
                    </mxGeometry>
                </mxCell>
                <mxCell id="201" value="" style="rounded=0;orthogonalLoop=1;jettySize=auto;html=1;endArrow=halfCircle;endFill=0;entryX=0.5;entryY=0.5;endSize=6;strokeWidth=1;sketch=0;fontSize=10;exitX=0;exitY=0.25;exitDx=0;exitDy=0;" edge="1" parent="1" target="202" source="141">
                    <mxGeometry relative="1" as="geometry">
                        <mxPoint x="550" y="325.00000000000006" as="sourcePoint"/>
                    </mxGeometry>
                </mxCell>
                <mxCell id="197" value="" style="rounded=0;orthogonalLoop=1;jettySize=auto;html=1;endArrow=halfCircle;endFill=0;entryX=0.5;entryY=0.5;endSize=6;strokeWidth=1;sketch=0;fontSize=10;exitX=0;exitY=0;exitDx=0;exitDy=0;" edge="1" parent="1" target="198" source="141">
                    <mxGeometry relative="1" as="geometry">
                        <mxPoint x="415.49" y="351.47" as="sourcePoint"/>
                    </mxGeometry>
                </mxCell>
                <mxCell id="189" value="" style="rounded=0;orthogonalLoop=1;jettySize=auto;html=1;endArrow=halfCircle;endFill=0;entryX=0.5;entryY=0.5;endSize=6;strokeWidth=1;sketch=0;fontSize=10;exitX=0.25;exitY=0;exitDx=0;exitDy=0;" edge="1" parent="1" target="190" source="141">
                    <mxGeometry relative="1" as="geometry">
                        <mxPoint x="380.05" y="313.59000000000003" as="sourcePoint"/>
                    </mxGeometry>
                </mxCell>
                <mxCell id="185" value="" style="rounded=0;orthogonalLoop=1;jettySize=auto;html=1;endArrow=halfCircle;endFill=0;entryX=0.5;entryY=0.5;endSize=6;strokeWidth=1;sketch=0;fontSize=10;exitX=0.5;exitY=0;exitDx=0;exitDy=0;" edge="1" parent="1" target="186" source="141">
                    <mxGeometry relative="1" as="geometry">
                        <mxPoint x="285.25" y="374.35" as="sourcePoint"/>
                        <Array as="points">
                            <mxPoint x="285" y="305"/>
                        </Array>
                    </mxGeometry>
                </mxCell>
                <mxCell id="181" value="" style="rounded=0;orthogonalLoop=1;jettySize=auto;html=1;endArrow=halfCircle;endFill=0;entryX=0.5;entryY=0.5;endSize=6;strokeWidth=1;sketch=0;fontSize=10;exitX=0.75;exitY=0;exitDx=0;exitDy=0;" edge="1" parent="1" target="182" source="141">
                    <mxGeometry relative="1" as="geometry">
                        <mxPoint x="270" y="315.00000000000006" as="sourcePoint"/>
                        <Array as="points">
                            <mxPoint x="270" y="298"/>
                        </Array>
                    </mxGeometry>
                </mxCell>
                <mxCell id="177" value="" style="rounded=0;orthogonalLoop=1;jettySize=auto;html=1;endArrow=halfCircle;endFill=0;entryX=0.5;entryY=0.5;endSize=6;strokeWidth=1;sketch=0;fontSize=10;exitX=1;exitY=0;exitDx=0;exitDy=0;" edge="1" parent="1" target="178" source="141">
                    <mxGeometry relative="1" as="geometry">
                        <mxPoint x="140.64" y="399" as="sourcePoint"/>
                        <Array as="points">
                            <mxPoint x="141" y="290"/>
                        </Array>
                    </mxGeometry>
                </mxCell>
                <mxCell id="265" value="" style="rounded=0;orthogonalLoop=1;jettySize=auto;html=1;endArrow=halfCircle;endFill=0;entryX=0.5;entryY=0.5;endSize=6;strokeWidth=1;sketch=0;fontSize=10;exitX=0;exitY=0.5;exitDx=0;exitDy=0;" edge="1" parent="1" target="266" source="136">
                    <mxGeometry relative="1" as="geometry">
                        <mxPoint x="645" y="150" as="sourcePoint"/>
                        <Array as="points">
                            <mxPoint x="645" y="180"/>
                        </Array>
                    </mxGeometry>
                </mxCell>
                <mxCell id="273" value="" style="rounded=0;orthogonalLoop=1;jettySize=auto;html=1;endArrow=halfCircle;endFill=0;entryX=0.5;entryY=0.5;endSize=6;strokeWidth=1;sketch=0;fontSize=10;exitX=0;exitY=0;exitDx=0;exitDy=0;" edge="1" parent="1" target="274" source="136">
                    <mxGeometry relative="1" as="geometry">
                        <mxPoint x="704" y="225" as="sourcePoint"/>
                    </mxGeometry>
                </mxCell>
                <mxCell id="269" value="" style="rounded=0;orthogonalLoop=1;jettySize=auto;html=1;endArrow=halfCircle;endFill=0;entryX=0.5;entryY=0.5;endSize=6;strokeWidth=1;sketch=0;fontSize=10;exitX=0.25;exitY=0;exitDx=0;exitDy=0;" edge="1" parent="1" target="270" source="136">
                    <mxGeometry relative="1" as="geometry">
                        <mxPoint x="834" y="150" as="sourcePoint"/>
                        <Array as="points">
                            <mxPoint x="834" y="190"/>
                        </Array>
                    </mxGeometry>
                </mxCell>
                <mxCell id="257" value="" style="rounded=0;orthogonalLoop=1;jettySize=auto;html=1;endArrow=halfCircle;endFill=0;entryX=0.5;entryY=0.5;endSize=6;strokeWidth=1;sketch=0;fontSize=10;exitX=0.25;exitY=0;exitDx=0;exitDy=0;" edge="1" parent="1" target="258" source="136">
                    <mxGeometry relative="1" as="geometry">
                        <mxPoint x="874" y="225" as="sourcePoint"/>
                    </mxGeometry>
                </mxCell>
                <mxCell id="253" value="" style="rounded=0;orthogonalLoop=1;jettySize=auto;html=1;endArrow=halfCircle;endFill=0;entryX=0.5;entryY=0.5;endSize=6;strokeWidth=1;sketch=0;fontSize=10;exitX=0.5;exitY=0;exitDx=0;exitDy=0;" edge="1" parent="1" target="254" source="136">
                    <mxGeometry relative="1" as="geometry">
                        <mxPoint x="880" y="240" as="sourcePoint"/>
                        <Array as="points">
                            <mxPoint x="972" y="210"/>
                        </Array>
                    </mxGeometry>
                </mxCell>
                <mxCell id="261" value="" style="rounded=0;orthogonalLoop=1;jettySize=auto;html=1;endArrow=halfCircle;endFill=0;entryX=0.5;entryY=0.5;endSize=6;strokeWidth=1;sketch=0;fontSize=10;exitX=0.75;exitY=0;exitDx=0;exitDy=0;" edge="1" parent="1" target="262" source="136">
                    <mxGeometry relative="1" as="geometry">
                        <mxPoint x="1037.9099999999999" y="225" as="sourcePoint"/>
                    </mxGeometry>
                </mxCell>
                <mxCell id="277" value="" style="rounded=0;orthogonalLoop=1;jettySize=auto;html=1;endArrow=halfCircle;endFill=0;entryX=0.5;entryY=0.5;endSize=6;strokeWidth=1;sketch=0;fontSize=10;exitX=1;exitY=0;exitDx=0;exitDy=0;" edge="1" parent="1" target="278" source="136">
                    <mxGeometry relative="1" as="geometry">
                        <mxPoint x="1112" y="135" as="sourcePoint"/>
                        <Array as="points">
                            <mxPoint x="1112" y="239"/>
                        </Array>
                    </mxGeometry>
                </mxCell>
                <mxCell id="243" value="" style="rounded=0;orthogonalLoop=1;jettySize=auto;html=1;endArrow=halfCircle;endFill=0;entryX=0.5;entryY=0.5;endSize=6;strokeWidth=1;sketch=0;fontSize=10;exitX=0;exitY=0.75;exitDx=0;exitDy=0;" edge="1" parent="1" target="244" source="141">
                    <mxGeometry relative="1" as="geometry">
                        <mxPoint x="637.92" y="394" as="sourcePoint"/>
                    </mxGeometry>
                </mxCell>
                <mxCell id="219" value="" style="rounded=0;orthogonalLoop=1;jettySize=auto;html=1;endArrow=halfCircle;endFill=0;entryX=0.5;entryY=0.5;endSize=6;strokeWidth=1;sketch=0;fontSize=10;exitX=0;exitY=0.935;exitDx=0;exitDy=0;exitPerimeter=0;" edge="1" parent="1" target="220" source="141">
                    <mxGeometry relative="1" as="geometry">
                        <mxPoint x="677.92" y="313.59" as="sourcePoint"/>
                    </mxGeometry>
                </mxCell>
                <mxCell id="223" value="" style="rounded=0;orthogonalLoop=1;jettySize=auto;html=1;endArrow=halfCircle;endFill=0;entryX=0.5;entryY=0.5;endSize=6;strokeWidth=1;sketch=0;fontSize=10;exitX=0.25;exitY=1;exitDx=0;exitDy=0;" edge="1" parent="1" target="224" source="141">
                    <mxGeometry relative="1" as="geometry">
                        <mxPoint x="786.19" y="399" as="sourcePoint"/>
                        <Array as="points">
                            <mxPoint x="786" y="330"/>
                        </Array>
                    </mxGeometry>
                </mxCell>
                <mxCell id="227" value="" style="rounded=0;orthogonalLoop=1;jettySize=auto;html=1;endArrow=halfCircle;endFill=0;entryX=0.5;entryY=0.5;endSize=6;strokeWidth=1;sketch=0;fontSize=10;exitX=0.5;exitY=1;exitDx=0;exitDy=0;" edge="1" parent="1" target="228" source="141">
                    <mxGeometry relative="1" as="geometry">
                        <mxPoint x="858.5" y="315" as="sourcePoint"/>
                        <Array as="points">
                            <mxPoint x="859" y="310"/>
                        </Array>
                    </mxGeometry>
                </mxCell>
                <mxCell id="239" value="" style="rounded=0;orthogonalLoop=1;jettySize=auto;html=1;endArrow=halfCircle;endFill=0;entryX=0.5;entryY=0.5;endSize=6;strokeWidth=1;sketch=0;fontSize=10;exitX=0.75;exitY=1;exitDx=0;exitDy=0;" edge="1" parent="1" target="240" source="141">
                    <mxGeometry relative="1" as="geometry">
                        <mxPoint x="1015.4" y="315" as="sourcePoint"/>
                        <Array as="points">
                            <mxPoint x="1015" y="298"/>
                        </Array>
                    </mxGeometry>
                </mxCell>
                <mxCell id="235" value="" style="rounded=0;orthogonalLoop=1;jettySize=auto;html=1;endArrow=halfCircle;endFill=0;entryX=0.5;entryY=0.5;endSize=6;strokeWidth=1;sketch=0;fontSize=10;exitX=1;exitY=1;exitDx=0;exitDy=0;" edge="1" parent="1" target="236" source="141">
                    <mxGeometry relative="1" as="geometry">
                        <mxPoint x="936.03" y="313.59000000000003" as="sourcePoint"/>
                        <Array as="points">
                            <mxPoint x="936" y="290"/>
                        </Array>
                    </mxGeometry>
                </mxCell>
                <mxCell id="231" value="" style="rounded=0;orthogonalLoop=1;jettySize=auto;html=1;endArrow=halfCircle;endFill=0;entryX=0.5;entryY=0.5;endSize=6;strokeWidth=1;sketch=0;fontSize=10;exitX=1;exitY=1;exitDx=0;exitDy=0;" edge="1" parent="1" target="232" source="141">
                    <mxGeometry relative="1" as="geometry">
                        <mxPoint x="1079.0800000000002" y="313.59000000000003" as="sourcePoint"/>
                        <Array as="points">
                            <mxPoint x="1079" y="290"/>
                        </Array>
                    </mxGeometry>
                </mxCell>
            </root>
        </mxGraphModel>
    </diagram>
</mxfile>